<svg xmlns="http://www.w3.org/2000/svg" viewBox="0 0 400 460">
  <path d="M138 52 L62 92 L14 196 L86 228 L98 194 L98 420 Q98 436 116 438 Q200 452 284 438 Q302 436 302 420 L302 194 L314 228 L386 196 L338 92 L262 52 Q240 76 200 76 Q160 76 138 52 Z" fill="#e9e5df" stroke="rgba(0,0,0,0.2)" stroke-width="3" stroke-linejoin="round"/>
  <path d="M138 52 Q133 20 200 16 Q267 20 262 52 Q240 76 200 76 Q160 76 138 52 Z" fill="#e9e5df" stroke="rgba(0,0,0,0.22)" stroke-width="3"/>
  <path d="M152 56 Q160 34 200 32 Q240 34 248 56 Q230 70 200 70 Q170 70 152 56 Z" fill="rgba(0,0,0,0.20)"/>
  <path d="M186 78 L182 120 L188 120 L192 80 Z" fill="rgba(0,0,0,0.12)"/>
  <path d="M214 78 L218 120 L212 120 L208 80 Z" fill="rgba(0,0,0,0.12)"/>
  <path d="M130 320 Q200 302 270 320 L262 396 Q200 384 138 396 Z" fill="rgba(0,0,0,0.07)" stroke="rgba(0,0,0,0.14)" stroke-width="2.5"/>
  <path d="M98 194 L86 228 L14 196 L62 92 L138 52 Q116 80 106 124 Q98 154 98 194 Z" fill="rgba(0,0,0,0.05)"/>
  <path d="M302 194 L314 228 L386 196 L338 92 L262 52 Q284 80 294 124 Q302 154 302 194 Z" fill="rgba(0,0,0,0.05)"/>
  <path d="M102 412 Q200 428 298 412 L298 420 Q200 436 102 420 Z" fill="rgba(0,0,0,0.08)"/>
</svg>
