<svg xmlns="http://www.w3.org/2000/svg" viewBox="0 0 400 480">
  <path d="M140 96 L260 96 L276 400 Q277 424 250 428 Q200 434 150 428 Q123 424 124 400 Z" fill="#e9e5df" stroke="rgba(0,0,0,0.2)" stroke-width="3"/>
  <path d="M132 56 Q132 44 148 44 L252 44 Q268 44 268 56 L268 78 Q268 92 252 92 L148 92 Q132 92 132 78 Z" fill="#2b2f36"/>
  <rect x="150" y="52" width="60" height="10" rx="5" fill="rgba(255,255,255,0.16)"/>
  <path d="M136 120 Q133 280 140 414 Q130 406 129 396 L128 122 Z" fill="rgba(255,255,255,0.3)"/>
  <path d="M264 120 Q267 280 260 416 Q270 408 271 398 L272 122 Z" fill="rgba(0,0,0,0.1)"/>
</svg>
